<svg width="48" height="49" viewBox="0 0 48 49" fill="none" xmlns="http://www.w3.org/2000/svg">
<path d="M24.2 36.15C24.7333 36.15 25.1833 35.9667 25.55 35.6C25.9167 35.2333 26.1 34.7833 26.1 34.25C26.1 33.7167 25.9167 33.2667 25.55 32.9C25.1833 32.5333 24.7333 32.35 24.2 32.35C23.6667 32.35 23.2167 32.5333 22.85 32.9C22.4833 33.2667 22.3 33.7167 22.3 34.25C22.3 34.7833 22.4833 35.2333 22.85 35.6C23.2167 35.9667 23.6667 36.15 24.2 36.15ZM22.45 28.85H25.4C25.4 27.9833 25.5083 27.1917 25.725 26.475C25.9417 25.7583 26.6167 24.9333 27.75 24C28.7833 23.1333 29.5167 22.2833 29.95 21.45C30.3833 20.6167 30.6 19.7 30.6 18.7C30.6 16.9333 30.025 15.5167 28.875 14.45C27.725 13.3833 26.2 12.85 24.3 12.85C22.6667 12.85 21.225 13.2583 19.975 14.075C18.725 14.8917 17.8167 16.0167 17.25 17.45L19.9 18.45C20.2667 17.5167 20.8167 16.7917 21.55 16.275C22.2833 15.7583 23.15 15.5 24.15 15.5C25.2833 15.5 26.2 15.8083 26.9 16.425C27.6 17.0417 27.95 17.8333 27.95 18.8C27.95 19.5333 27.7333 20.225 27.3 20.875C26.8667 21.525 26.2333 22.2 25.4 22.9C24.4 23.7667 23.6583 24.625 23.175 25.475C22.6917 26.325 22.45 27.45 22.45 28.85V28.85ZM24 44.5C21.2667 44.5 18.6833 43.975 16.25 42.925C13.8167 41.875 11.6917 40.4417 9.875 38.625C8.05833 36.8083 6.625 34.6833 5.575 32.25C4.525 29.8167 4 27.2333 4 24.5C4 21.7333 4.525 19.1333 5.575 16.7C6.625 14.2667 8.05833 12.15 9.875 10.35C11.6917 8.55 13.8167 7.125 16.25 6.075C18.6833 5.025 21.2667 4.5 24 4.5C26.7667 4.5 29.3667 5.025 31.8 6.075C34.2333 7.125 36.35 8.55 38.15 10.35C39.95 12.15 41.375 14.2667 42.425 16.7C43.475 19.1333 44 21.7333 44 24.5C44 27.2333 43.475 29.8167 42.425 32.25C41.375 34.6833 39.95 36.8083 38.15 38.625C36.35 40.4417 34.2333 41.875 31.8 42.925C29.3667 43.975 26.7667 44.5 24 44.5ZM24 41.5C28.7333 41.5 32.75 39.8417 36.05 36.525C39.35 33.2083 41 29.2 41 24.5C41 19.7667 39.35 15.75 36.05 12.45C32.75 9.15 28.7333 7.5 24 7.5C19.3 7.5 15.2917 9.15 11.975 12.45C8.65833 15.75 7 19.7667 7 24.5C7 29.2 8.65833 33.2083 11.975 36.525C15.2917 39.8417 19.3 41.5 24 41.5Z" fill="#FF9100"/>
</svg>
