<svg width="160" height="160" viewBox="0 0 160 160" fill="none" xmlns="http://www.w3.org/2000/svg">
<rect width="160" height="160" fill="white"/>
<path d="M77.6881 138.219C104.103 138.219 125.516 116.901 125.516 90.604C125.516 64.307 104.103 42.989 77.6881 42.989C51.2734 42.989 29.8601 64.307 29.8601 90.604C29.8601 116.901 51.2734 138.219 77.6881 138.219Z" fill="#F1F4F4"/>
<path d="M133.071 80.6909C127.69 50.2609 98.7581 29.9119 68.4491 35.2409C38.1411 40.5699 17.9331 69.5589 23.3141 99.9889C28.6951 130.419 57.6271 150.769 87.9361 145.439" stroke="#BECACF" stroke-width="0.6"/>
<path d="M17.026 85.278C14.094 119.115 39.049 148.961 72.765 151.939C106.48 154.918 136.189 129.901 139.12 96.063C142.052 62.226 117.097 32.38 83.3811 29.402" stroke="#BECACF" stroke-width="0.6"/>
<path fill-rule="evenodd" clip-rule="evenodd" d="M50.113 136.549V112.579C40.335 104.814 34.072 92.839 34.072 79.403C34.072 55.983 53.11 36.999 76.592 36.999C99.383 36.999 117.984 54.88 119.06 77.345L126.364 96.225C127.417 98.947 126.046 102.034 123.314 103.084L116.869 105.57V119.652C116.869 124.518 112.881 128.497 108.002 128.497H94.392V148.4" fill="white"/>
<path d="M50.113 136.549V112.579C40.335 104.814 34.072 92.839 34.072 79.403C34.072 55.983 53.11 36.999 76.592 36.999C99.383 36.999 117.984 54.88 119.06 77.345L126.364 96.225C127.417 98.947 126.046 102.034 123.314 103.084L116.869 105.57V119.652C116.869 124.518 112.881 128.497 108.002 128.497H94.392V148.4" stroke="#002842" stroke-width="1.2"/>
<path fill-rule="evenodd" clip-rule="evenodd" d="M104.06 22.341C105.288 21.547 105.929 20.951 105.984 20.554C106.034 20.191 105.984 11.84 105.984 10.297C105.984 9.88898 105.343 9.24998 104.06 8.38098H41.615V22.341" fill="white"/>
<path fill-rule="evenodd" clip-rule="evenodd" d="M43.694 21.961H103.77C104.586 21.961 105.249 21.273 105.249 20.428V10.295C105.249 9.45 104.586 8.762 103.77 8.762H43.694V21.961ZM103.77 22.722H43.327C43.2779 22.7212 43.2294 22.7108 43.1844 22.6912C43.1393 22.6717 43.0985 22.6435 43.0643 22.6082C43.0301 22.5729 43.0033 22.5313 42.9852 22.4856C42.9671 22.4399 42.9582 22.3911 42.959 22.342V8.382C42.959 8.171 43.124 8 43.327 8H103.77C104.99 8 105.984 9.03 105.984 10.295V20.428C105.984 21.693 104.991 22.722 103.77 22.722V22.722Z" fill="#032D47"/>
<path fill-rule="evenodd" clip-rule="evenodd" d="M50.5409 17.7C50.4419 17.6981 50.3476 17.6571 50.2788 17.5859C50.21 17.5146 50.1723 17.419 50.1739 17.32V13.306C50.1739 13.096 50.3379 12.925 50.5409 12.925C50.7439 12.925 50.9079 13.095 50.9079 13.305V17.319C50.9079 17.529 50.7439 17.7 50.5409 17.7Z" fill="#FF0049"/>
<path fill-rule="evenodd" clip-rule="evenodd" d="M49.1721 17.113C49.1234 17.1129 49.0753 17.1029 49.0306 17.0836C48.9859 17.0644 48.9456 17.0363 48.912 17.001C48.8427 16.9284 48.804 16.8319 48.804 16.7315C48.804 16.6311 48.8427 16.5346 48.912 16.462L51.6501 13.624C51.6835 13.5888 51.7237 13.5608 51.7684 13.5417C51.813 13.5225 51.861 13.5126 51.9096 13.5126C51.9581 13.5126 52.0061 13.5225 52.0508 13.5417C52.0954 13.5608 52.1356 13.5888 52.1691 13.624C52.2384 13.6966 52.2771 13.7931 52.2771 13.8935C52.2771 13.9939 52.2384 14.0904 52.1691 14.163L49.4321 17.001C49.3985 17.0363 49.3582 17.0644 49.3135 17.0836C49.2688 17.1029 49.2207 17.1129 49.1721 17.113" fill="#FF0049"/>
<path fill-rule="evenodd" clip-rule="evenodd" d="M52.4771 15.693H48.6051C48.5061 15.6912 48.4118 15.6501 48.343 15.5789C48.2742 15.5076 48.2365 15.412 48.2381 15.313C48.2381 15.103 48.4021 14.932 48.6051 14.932H52.4771C52.6801 14.932 52.8441 15.102 52.8441 15.312C52.8441 15.522 52.6801 15.693 52.4771 15.693Z" fill="#FF0049"/>
<path fill-rule="evenodd" clip-rule="evenodd" d="M51.909 17.113C51.8604 17.1129 51.8123 17.1029 51.7676 17.0836C51.7229 17.0644 51.6826 17.0363 51.6491 17.001L48.912 14.163C48.8427 14.0904 48.804 13.9939 48.804 13.8935C48.804 13.7931 48.8427 13.6966 48.912 13.624C48.9455 13.5886 48.9858 13.5605 49.0305 13.5412C49.0752 13.522 49.1234 13.5121 49.1721 13.5121C49.2207 13.5121 49.2689 13.522 49.3136 13.5412C49.3583 13.5605 49.3986 13.5886 49.4321 13.624L52.1691 16.462C52.2384 16.5346 52.2771 16.6311 52.2771 16.7315C52.2771 16.8319 52.2384 16.9284 52.1691 17.001C52.1355 17.0363 52.0952 17.0644 52.0505 17.0836C52.0058 17.1029 51.9577 17.1129 51.909 17.113M59.967 17.7C59.868 17.6981 59.7738 17.6571 59.705 17.5859C59.6362 17.5146 59.5984 17.419 59.6001 17.32V13.306C59.6001 13.096 59.764 12.925 59.967 12.925C60.17 12.925 60.3351 13.095 60.3351 13.305V17.319C60.3351 17.529 60.17 17.7 59.967 17.7Z" fill="#FF0049"/>
<path fill-rule="evenodd" clip-rule="evenodd" d="M58.5991 17.113C58.5504 17.1129 58.5023 17.1029 58.4576 17.0836C58.4129 17.0644 58.3726 17.0363 58.3391 17.001C58.2697 16.9284 58.231 16.8319 58.231 16.7315C58.231 16.6311 58.2697 16.5346 58.3391 16.462L61.076 13.624C61.1095 13.5886 61.1498 13.5605 61.1945 13.5412C61.2392 13.522 61.2874 13.5121 61.3361 13.5121C61.3847 13.5121 61.4329 13.522 61.4776 13.5412C61.5223 13.5605 61.5626 13.5886 61.5961 13.624C61.6654 13.6966 61.7041 13.7931 61.7041 13.8935C61.7041 13.9939 61.6654 14.0904 61.5961 14.163L58.8581 17.001C58.8245 17.0363 58.7842 17.0644 58.7395 17.0836C58.6948 17.1029 58.6467 17.1129 58.5981 17.113" fill="#FF0049"/>
<path fill-rule="evenodd" clip-rule="evenodd" d="M61.9031 15.693H58.0311C57.9321 15.6912 57.8378 15.6501 57.769 15.5789C57.7002 15.5076 57.6625 15.412 57.6641 15.313C57.6641 15.103 57.8281 14.932 58.0311 14.932H61.9031C62.1061 14.932 62.2701 15.102 62.2701 15.312C62.2701 15.522 62.1061 15.693 61.9031 15.693Z" fill="#FF0049"/>
<path fill-rule="evenodd" clip-rule="evenodd" d="M61.3361 17.113C61.2874 17.1129 61.2393 17.1029 61.1946 17.0836C61.1499 17.0644 61.1096 17.0363 61.076 17.001L58.3391 14.163C58.2697 14.0904 58.231 13.9939 58.231 13.8935C58.231 13.7931 58.2697 13.6966 58.3391 13.624C58.3725 13.5886 58.4128 13.5605 58.4575 13.5412C58.5022 13.522 58.5504 13.5121 58.5991 13.5121C58.6477 13.5121 58.6959 13.522 58.7406 13.5412C58.7853 13.5605 58.8256 13.5886 58.8591 13.624L61.5951 16.462C61.6644 16.5346 61.7031 16.6311 61.7031 16.7315C61.7031 16.8319 61.6644 16.9284 61.5951 17.001C61.5615 17.0363 61.5212 17.0644 61.4765 17.0836C61.4318 17.1029 61.3837 17.1129 61.3351 17.113M69.3941 17.7C69.3449 17.6992 69.2965 17.6888 69.2514 17.6692C69.2063 17.6497 69.1655 17.6215 69.1313 17.5862C69.0972 17.5509 69.0703 17.5093 69.0522 17.4636C69.0342 17.4179 69.0253 17.3691 69.0261 17.32V13.306C69.0261 13.096 69.1901 12.925 69.3941 12.925C69.5971 12.925 69.7611 13.095 69.7611 13.305V17.319C69.7611 17.529 69.5971 17.7 69.3941 17.7Z" fill="#FF0049"/>
<path fill-rule="evenodd" clip-rule="evenodd" d="M68.0251 17.113C67.9764 17.1129 67.9283 17.1029 67.8836 17.0836C67.8389 17.0644 67.7986 17.0363 67.7651 17.001C67.6957 16.9284 67.657 16.8319 67.657 16.7315C67.657 16.6311 67.6957 16.5346 67.7651 16.462L70.5031 13.624C70.5365 13.5886 70.5768 13.5605 70.6216 13.5412C70.6663 13.522 70.7144 13.5121 70.7631 13.5121C70.8118 13.5121 70.8599 13.522 70.9046 13.5412C70.9493 13.5605 70.9896 13.5886 71.0231 13.624C71.0925 13.6966 71.1312 13.7931 71.1312 13.8935C71.1312 13.9939 71.0925 14.0904 71.0231 14.163L68.2841 17.001C68.2506 17.0363 68.2102 17.0644 68.1656 17.0836C68.1209 17.1029 68.0727 17.1129 68.0241 17.113" fill="#FF0049"/>
<path fill-rule="evenodd" clip-rule="evenodd" d="M71.3289 15.693H67.4579C67.4088 15.6922 67.3603 15.6818 67.3152 15.6623C67.2701 15.6427 67.2294 15.6145 67.1952 15.5792C67.161 15.5439 67.1341 15.5023 67.1161 15.4566C67.098 15.4109 67.0891 15.3621 67.0899 15.313C67.0899 15.103 67.2539 14.932 67.4579 14.932H71.3289C71.5319 14.932 71.6969 15.102 71.6969 15.312C71.6969 15.522 71.5319 15.693 71.3289 15.693Z" fill="#FF0049"/>
<path fill-rule="evenodd" clip-rule="evenodd" d="M70.7621 17.113C70.7134 17.1129 70.6653 17.1029 70.6206 17.0836C70.5759 17.0644 70.5356 17.0363 70.5021 17.001L67.7651 14.163C67.6957 14.0904 67.657 13.9939 67.657 13.8935C67.657 13.7931 67.6957 13.6966 67.7651 13.624C67.7985 13.5886 67.8388 13.5605 67.8836 13.5412C67.9283 13.522 67.9764 13.5121 68.0251 13.5121C68.0738 13.5121 68.1219 13.522 68.1666 13.5412C68.2113 13.5605 68.2516 13.5886 68.2851 13.624L71.0221 16.462C71.0915 16.5346 71.1302 16.6311 71.1302 16.7315C71.1302 16.8319 71.0915 16.9284 71.0221 17.001C70.9886 17.0363 70.9482 17.0644 70.9036 17.0836C70.8589 17.1029 70.8107 17.1129 70.7621 17.113M78.8201 17.7C78.7211 17.6981 78.6268 17.6571 78.558 17.5859C78.4892 17.5146 78.4515 17.419 78.4531 17.32V13.306C78.4531 13.096 78.6171 12.925 78.8201 12.925C79.0231 12.925 79.1871 13.095 79.1871 13.305V17.319C79.1871 17.529 79.0231 17.7 78.8201 17.7Z" fill="#FF0049"/>
<path fill-rule="evenodd" clip-rule="evenodd" d="M77.4511 17.113C77.4024 17.1129 77.3543 17.1029 77.3096 17.0836C77.2649 17.0644 77.2246 17.0363 77.1911 17.001C77.1217 16.9284 77.083 16.8319 77.083 16.7315C77.083 16.6311 77.1217 16.5346 77.1911 16.462L79.9291 13.624C79.9626 13.5886 80.0029 13.5605 80.0476 13.5412C80.0923 13.522 80.1404 13.5121 80.1891 13.5121C80.2378 13.5121 80.2859 13.522 80.3306 13.5412C80.3753 13.5605 80.4156 13.5886 80.4491 13.624C80.5185 13.6966 80.5572 13.7931 80.5572 13.8935C80.5572 13.9939 80.5185 14.0904 80.4491 14.163L77.7111 17.001C77.6776 17.0363 77.6373 17.0644 77.5926 17.0836C77.5479 17.1029 77.4998 17.1129 77.4511 17.113" fill="#FF0049"/>
<path fill-rule="evenodd" clip-rule="evenodd" d="M80.7559 15.693H76.8839C76.7849 15.6912 76.6906 15.6501 76.6218 15.5789C76.553 15.5076 76.5153 15.412 76.5169 15.313C76.5169 15.103 76.6809 14.932 76.8839 14.932H80.7559C80.9589 14.932 81.1229 15.102 81.1229 15.312C81.1229 15.522 80.9589 15.693 80.7559 15.693Z" fill="#FF0049"/>
<path fill-rule="evenodd" clip-rule="evenodd" d="M80.1891 17.113C80.1404 17.1129 80.0923 17.1029 80.0476 17.0836C80.0029 17.0644 79.9626 17.0363 79.9291 17.001L77.1911 14.163C77.1217 14.0904 77.083 13.9939 77.083 13.8935C77.083 13.7931 77.1217 13.6966 77.1911 13.624C77.2246 13.5886 77.2649 13.5605 77.3096 13.5412C77.3543 13.522 77.4024 13.5121 77.4511 13.5121C77.4998 13.5121 77.5479 13.522 77.5926 13.5412C77.6373 13.5605 77.6776 13.5886 77.7111 13.624L80.4481 16.462C80.5175 16.5346 80.5562 16.6311 80.5562 16.7315C80.5562 16.8319 80.5175 16.9284 80.4481 17.001C80.4146 17.0363 80.3743 17.0644 80.3296 17.0836C80.2849 17.1029 80.2368 17.1129 80.1881 17.113M88.2461 17.7C88.1471 17.6981 88.0528 17.6571 87.984 17.5859C87.9152 17.5146 87.8775 17.419 87.8791 17.32V13.306C87.8791 13.096 88.0431 12.925 88.2461 12.925C88.4491 12.925 88.6141 13.095 88.6141 13.305V17.319C88.6141 17.529 88.4491 17.7 88.2461 17.7Z" fill="#FF0049"/>
<path fill-rule="evenodd" clip-rule="evenodd" d="M86.8769 17.113C86.8282 17.1129 86.7801 17.1029 86.7354 17.0836C86.6907 17.0644 86.6504 17.0363 86.6169 17.001C86.5475 16.9284 86.5088 16.8319 86.5088 16.7315C86.5088 16.6311 86.5475 16.5346 86.6169 16.462L89.3549 13.624C89.3883 13.5886 89.4287 13.5605 89.4734 13.5412C89.5181 13.522 89.5662 13.5121 89.6149 13.5121C89.6636 13.5121 89.7117 13.522 89.7564 13.5412C89.8011 13.5605 89.8414 13.5886 89.8749 13.624C89.9443 13.6966 89.983 13.7931 89.983 13.8935C89.983 13.9939 89.9443 14.0904 89.8749 14.163L87.1369 17.001C87.1034 17.0363 87.063 17.0644 87.0184 17.0836C86.9737 17.1029 86.9255 17.1129 86.8769 17.113" fill="#FF0049"/>
<path fill-rule="evenodd" clip-rule="evenodd" d="M90.1819 15.693H86.3109C86.2618 15.6922 86.2133 15.6818 86.1682 15.6623C86.1232 15.6427 86.0824 15.6145 86.0482 15.5792C86.014 15.5439 85.9871 15.5023 85.9691 15.4566C85.951 15.4109 85.9421 15.3621 85.9429 15.313C85.9429 15.103 86.1079 14.932 86.3109 14.932H90.1809C90.3849 14.932 90.5489 15.102 90.5489 15.312C90.5489 15.522 90.3849 15.693 90.1819 15.693Z" fill="#FF0049"/>
<path fill-rule="evenodd" clip-rule="evenodd" d="M89.6151 17.113C89.5664 17.1129 89.5183 17.1029 89.4736 17.0836C89.4289 17.0644 89.3886 17.0363 89.3551 17.001L86.6181 14.163C86.5487 14.0904 86.51 13.9939 86.51 13.8935C86.51 13.7931 86.5487 13.6966 86.6181 13.624C86.6516 13.5886 86.6919 13.5605 86.7366 13.5412C86.7813 13.522 86.8294 13.5121 86.8781 13.5121C86.9268 13.5121 86.9749 13.522 87.0196 13.5412C87.0643 13.5605 87.1047 13.5886 87.1381 13.624L89.8751 16.462C89.9445 16.5346 89.9832 16.6311 89.9832 16.7315C89.9832 16.8319 89.9445 16.9284 89.8751 17.001C89.8416 17.0363 89.8013 17.0644 89.7566 17.0836C89.7119 17.1029 89.6638 17.1129 89.6151 17.113M97.6731 17.7C97.624 17.6992 97.5755 17.6888 97.5304 17.6692C97.4853 17.6497 97.4446 17.6215 97.4104 17.5862C97.3762 17.5509 97.3493 17.5093 97.3313 17.4636C97.3132 17.4179 97.3043 17.3691 97.3051 17.32V13.306C97.3051 13.096 97.4701 12.925 97.6731 12.925C97.8761 12.925 98.0401 13.095 98.0401 13.305V17.319C98.0401 17.529 97.8761 17.7 97.6731 17.7Z" fill="#FF0049"/>
<path fill-rule="evenodd" clip-rule="evenodd" d="M96.3039 17.113C96.2552 17.1129 96.2071 17.1029 96.1624 17.0836C96.1177 17.0644 96.0774 17.0363 96.0439 17.001C95.9745 16.9284 95.9358 16.8319 95.9358 16.7315C95.9358 16.6311 95.9745 16.5346 96.0439 16.462L98.7819 13.624C98.8153 13.5886 98.8557 13.5605 98.9004 13.5412C98.9451 13.522 98.9932 13.5121 99.0419 13.5121C99.0906 13.5121 99.1387 13.522 99.1834 13.5412C99.2281 13.5605 99.2684 13.5886 99.3019 13.624C99.3713 13.6966 99.41 13.7931 99.41 13.8935C99.41 13.9939 99.3713 14.0904 99.3019 14.163L96.5629 17.001C96.5294 17.0363 96.4891 17.0644 96.4444 17.0836C96.3997 17.1029 96.3515 17.1129 96.3029 17.113" fill="#FF0049"/>
<path fill-rule="evenodd" clip-rule="evenodd" d="M99.6089 15.693H95.7369C95.6379 15.6912 95.5437 15.6501 95.4749 15.5789C95.4061 15.5076 95.3683 15.412 95.3699 15.313C95.3699 15.103 95.5339 14.932 95.7369 14.932H99.6079C99.8109 14.932 99.9759 15.102 99.9759 15.312C99.9759 15.522 99.8109 15.693 99.6079 15.693" fill="#FF0049"/>
<path fill-rule="evenodd" clip-rule="evenodd" d="M99.0409 17.113C98.9922 17.1129 98.9441 17.1029 98.8994 17.0836C98.8547 17.0644 98.8144 17.0363 98.7809 17.001L96.0439 14.163C95.9745 14.0904 95.9358 13.9939 95.9358 13.8935C95.9358 13.7931 95.9745 13.6966 96.0439 13.624C96.0773 13.5886 96.1177 13.5605 96.1624 13.5412C96.2071 13.522 96.2552 13.5121 96.3039 13.5121C96.3526 13.5121 96.4007 13.522 96.4454 13.5412C96.4901 13.5605 96.5304 13.5886 96.5639 13.624L99.3009 16.462C99.3703 16.5346 99.409 16.6311 99.409 16.7315C99.409 16.8319 99.3703 16.9284 99.3009 17.001C99.2674 17.0363 99.227 17.0644 99.1824 17.0836C99.1377 17.1029 99.0896 17.1129 99.0409 17.113" fill="#FF0049"/>
<path fill-rule="evenodd" clip-rule="evenodd" d="M31.3289 22.341H43.3269V8.38098H31.3289C30.5169 8.38098 29.8589 9.06298 29.8589 9.90398V20.818C29.8589 21.659 30.5169 22.341 31.3289 22.341Z" fill="#AFBDC4" stroke="#032D47" stroke-width="1.2"/>
<path fill-rule="evenodd" clip-rule="evenodd" d="M43.694 21.961H103.77C104.586 21.961 105.249 21.273 105.249 20.428V10.295C105.249 9.45 104.586 8.762 103.77 8.762H43.694V21.961ZM103.77 22.722H43.327C43.2779 22.7212 43.2294 22.7108 43.1844 22.6912C43.1393 22.6717 43.0985 22.6435 43.0643 22.6082C43.0301 22.5729 43.0033 22.5313 42.9852 22.4856C42.9671 22.4399 42.9582 22.3911 42.959 22.342V8.382C42.959 8.171 43.124 8 43.327 8H103.77C104.99 8 105.984 9.03 105.984 10.295V20.428C105.984 21.693 104.991 22.722 103.77 22.722V22.722Z" fill="#032D47"/>
<path fill-rule="evenodd" clip-rule="evenodd" d="M31.3289 22.341H43.3269V8.38098H31.3289C30.5169 8.38098 29.8589 9.06298 29.8589 9.90398V20.818C29.8589 21.659 30.5169 22.341 31.3289 22.341Z" fill="#AFBDC4" stroke="#032D47" stroke-width="1.2"/>
<path fill-rule="evenodd" clip-rule="evenodd" d="M34.374 15.361C34.374 14.091 35.368 13.06 36.594 13.06C37.82 13.06 38.814 14.09 38.814 15.361C38.814 16.632 37.82 17.663 36.594 17.663C35.368 17.663 34.374 16.633 34.374 15.361Z" fill="white"/>
<path fill-rule="evenodd" clip-rule="evenodd" d="M67.9821 69.197C67.883 69.1952 67.7888 69.1541 67.72 69.0829C67.6512 69.0117 67.6135 68.916 67.6151 68.817V59.453C67.6151 59.243 67.7791 59.072 67.9821 59.072C68.1861 59.072 68.3501 59.242 68.3501 59.452V68.815C68.3501 69.025 68.1861 69.196 67.9821 69.196M67.9821 56.027C67.9329 56.0261 67.8845 56.0155 67.8395 55.9959C67.7944 55.9763 67.7537 55.9479 67.7196 55.9126C67.6856 55.8772 67.6588 55.8354 67.6408 55.7897C67.6229 55.744 67.6141 55.6951 67.6151 55.646V48.812C67.6151 48.602 67.7791 48.431 67.9821 48.431C68.1861 48.431 68.3501 48.601 68.3501 48.811V55.646C68.3501 55.856 68.1861 56.026 67.9821 56.026M67.9821 45.384C67.883 45.3822 67.7888 45.3411 67.72 45.2699C67.6512 45.1987 67.6135 45.103 67.6151 45.004V22.729C67.6151 22.519 67.7791 22.348 67.9821 22.348C68.1861 22.348 68.3501 22.518 68.3501 22.728V45.004C68.3501 45.214 68.1861 45.384 67.9821 45.384Z" fill="#5B7687"/>
<path fill-rule="evenodd" clip-rule="evenodd" d="M97.4631 81.891C97.2631 81.724 97.2131 81.458 97.3481 81.296L103.388 74.098C103.524 73.936 103.795 73.94 103.994 74.108C104.194 74.274 104.244 74.541 104.109 74.702L98.0691 81.901C97.9331 82.062 97.6621 82.058 97.4631 81.891M106.171 71.513C105.972 71.345 105.917 71.084 106.048 70.928L110.292 65.87C110.422 65.715 110.689 65.724 110.889 65.89C111.088 66.058 111.143 66.32 111.012 66.475L106.768 71.533C106.638 71.689 106.371 71.68 106.171 71.513ZM112.703 63.729C112.503 63.562 112.453 63.295 112.588 63.133L126.974 45.989C127.11 45.828 127.381 45.832 127.58 45.999C127.78 46.166 127.83 46.432 127.695 46.594L113.309 63.738C113.173 63.9 112.902 63.896 112.703 63.728" fill="#5B7687"/>
<path fill-rule="evenodd" clip-rule="evenodd" d="M149.283 48.058C150.3 47.265 150.831 46.671 150.876 46.275C150.918 45.913 150.876 37.584 150.876 36.044C150.876 35.637 150.346 35 149.283 34.134H97.564V48.058" fill="white"/>
<path fill-rule="evenodd" clip-rule="evenodd" d="M99.5302 47.678H150.366C151.056 47.678 151.617 46.992 151.617 46.148V36.043C151.617 35.2 151.056 34.514 150.366 34.514H99.5302V47.679V47.678ZM150.366 48.438H99.2192C99.0482 48.438 98.9092 48.268 98.9092 48.058V34.133C98.9092 33.923 99.0482 33.753 99.2192 33.753H150.366C151.399 33.753 152.239 34.78 152.239 36.043V46.149C152.239 47.411 151.399 48.438 150.366 48.438V48.438Z" fill="#032D47"/>
<path fill-rule="evenodd" clip-rule="evenodd" d="M106.49 43.429C106.391 43.4271 106.297 43.3861 106.228 43.3149C106.159 43.2436 106.121 43.148 106.123 43.049V39.045C106.123 38.835 106.287 38.665 106.49 38.665C106.693 38.665 106.857 38.835 106.857 39.045V43.049C106.857 43.259 106.693 43.429 106.49 43.429Z" fill="#FF0049"/>
<path fill-rule="evenodd" clip-rule="evenodd" d="M105.121 42.843C105.073 42.8429 105.024 42.8329 104.98 42.8136C104.935 42.7944 104.895 42.7663 104.861 42.731C104.792 42.6586 104.754 42.5625 104.754 42.4625C104.754 42.3625 104.792 42.2663 104.861 42.194L107.599 39.364C107.633 39.3289 107.673 39.301 107.718 39.2819C107.763 39.2628 107.811 39.253 107.859 39.253C107.908 39.253 107.956 39.2628 108.001 39.2819C108.045 39.301 108.086 39.3289 108.119 39.364C108.188 39.4363 108.226 39.5322 108.226 39.632C108.226 39.7317 108.188 39.8277 108.119 39.9L105.381 42.731C105.348 42.7661 105.307 42.794 105.263 42.8131C105.218 42.8322 105.17 42.842 105.121 42.842" fill="#FF0049"/>
<path fill-rule="evenodd" clip-rule="evenodd" d="M108.426 41.427H104.554C104.455 41.4251 104.361 41.3841 104.292 41.3129C104.223 41.2416 104.185 41.146 104.187 41.047C104.187 40.837 104.351 40.667 104.554 40.667H108.426C108.629 40.667 108.793 40.837 108.793 41.047C108.793 41.257 108.629 41.427 108.426 41.427Z" fill="#FF0049"/>
<path fill-rule="evenodd" clip-rule="evenodd" d="M107.859 42.843C107.81 42.8428 107.762 42.8329 107.718 42.8136C107.673 42.7944 107.633 42.7662 107.599 42.731L104.862 39.901C104.793 39.8286 104.754 39.7322 104.754 39.632C104.754 39.5317 104.793 39.4354 104.862 39.363C104.896 39.328 104.936 39.3002 104.981 39.2813C105.025 39.2623 105.073 39.2525 105.122 39.2525C105.17 39.2525 105.218 39.2623 105.263 39.2813C105.307 39.3002 105.348 39.328 105.381 39.363L108.118 42.193C108.187 42.2654 108.226 42.3617 108.226 42.462C108.226 42.5622 108.187 42.6586 108.118 42.731C108.085 42.7661 108.044 42.794 107.999 42.8131C107.955 42.8321 107.907 42.842 107.858 42.842M115.916 43.429C115.817 43.4271 115.723 43.3861 115.654 43.3149C115.585 43.2436 115.548 43.148 115.549 43.049V39.045C115.549 38.835 115.713 38.665 115.916 38.665C116.12 38.665 116.284 38.835 116.284 39.045V43.049C116.284 43.259 116.12 43.429 115.916 43.429Z" fill="#FF0049"/>
<path fill-rule="evenodd" clip-rule="evenodd" d="M114.548 42.843C114.5 42.8429 114.451 42.8329 114.407 42.8136C114.362 42.7944 114.322 42.7663 114.288 42.731C114.219 42.6586 114.181 42.5625 114.181 42.4625C114.181 42.3625 114.219 42.2663 114.288 42.194L117.025 39.364C117.059 39.3289 117.099 39.301 117.144 39.2819C117.189 39.2628 117.237 39.253 117.285 39.253C117.334 39.253 117.382 39.2628 117.427 39.2819C117.471 39.301 117.512 39.3289 117.545 39.364C117.614 39.4363 117.652 39.5322 117.652 39.632C117.652 39.7317 117.614 39.8277 117.545 39.9L114.807 42.731C114.774 42.7661 114.733 42.794 114.689 42.8131C114.644 42.8322 114.596 42.842 114.547 42.842" fill="#FF0049"/>
<path fill-rule="evenodd" clip-rule="evenodd" d="M117.852 41.427H113.98C113.881 41.4251 113.787 41.3841 113.718 41.3129C113.649 41.2416 113.611 41.146 113.613 41.047C113.613 40.837 113.777 40.667 113.98 40.667H117.852C118.055 40.667 118.219 40.837 118.219 41.047C118.219 41.257 118.055 41.427 117.852 41.427Z" fill="#FF0049"/>
<path fill-rule="evenodd" clip-rule="evenodd" d="M117.285 42.843C117.237 42.8428 117.188 42.8329 117.144 42.8136C117.099 42.7944 117.059 42.7662 117.025 42.731L114.288 39.901C114.219 39.8286 114.18 39.7322 114.18 39.632C114.18 39.5317 114.219 39.4354 114.288 39.363C114.322 39.3279 114.362 39.3 114.407 39.2809C114.452 39.2618 114.5 39.252 114.548 39.252C114.597 39.252 114.645 39.2618 114.69 39.2809C114.734 39.3 114.775 39.3279 114.808 39.363L117.545 42.193C117.614 42.2654 117.653 42.3617 117.653 42.462C117.653 42.5622 117.614 42.6586 117.545 42.731C117.512 42.7661 117.471 42.794 117.427 42.8131C117.382 42.8321 117.334 42.842 117.285 42.842M125.343 43.429C125.294 43.4282 125.246 43.4177 125.201 43.3982C125.155 43.3787 125.115 43.3505 125.08 43.3152C125.046 43.2799 125.019 43.2382 125.001 43.1926C124.983 43.1469 124.974 43.0981 124.975 43.049V39.045C124.975 38.835 125.14 38.665 125.343 38.665C125.546 38.665 125.71 38.835 125.71 39.045V43.049C125.71 43.259 125.546 43.429 125.343 43.429Z" fill="#FF0049"/>
<path fill-rule="evenodd" clip-rule="evenodd" d="M123.974 42.843C123.925 42.8429 123.877 42.8329 123.832 42.8136C123.788 42.7944 123.747 42.7663 123.714 42.731C123.645 42.6586 123.606 42.5625 123.606 42.4625C123.606 42.3625 123.645 42.2663 123.714 42.194L126.452 39.364C126.486 39.3289 126.526 39.301 126.571 39.2819C126.615 39.2628 126.663 39.253 126.712 39.253C126.761 39.253 126.809 39.2628 126.853 39.2819C126.898 39.301 126.938 39.3289 126.972 39.364C127.041 39.4363 127.079 39.5322 127.079 39.632C127.079 39.7317 127.041 39.8277 126.972 39.9L124.234 42.731C124.2 42.7661 124.16 42.794 124.115 42.8131C124.071 42.8322 124.023 42.842 123.974 42.842" fill="#FF0049"/>
<path fill-rule="evenodd" clip-rule="evenodd" d="M127.279 41.427H123.407C123.358 41.4262 123.31 41.4158 123.264 41.3962C123.219 41.3767 123.179 41.3485 123.144 41.3132C123.11 41.2779 123.083 41.2363 123.065 41.1906C123.047 41.1449 123.038 41.0961 123.039 41.047C123.039 40.837 123.204 40.667 123.407 40.667H127.278C127.482 40.667 127.646 40.837 127.646 41.047C127.646 41.257 127.482 41.427 127.278 41.427" fill="#FF0049"/>
<path fill-rule="evenodd" clip-rule="evenodd" d="M126.712 42.843C126.664 42.8428 126.615 42.8329 126.571 42.8136C126.526 42.7944 126.486 42.7662 126.452 42.731L123.714 39.901C123.645 39.8286 123.606 39.7322 123.606 39.632C123.606 39.5317 123.645 39.4354 123.714 39.363C123.748 39.3279 123.788 39.3 123.833 39.2809C123.878 39.2618 123.926 39.252 123.974 39.252C124.023 39.252 124.071 39.2618 124.116 39.2809C124.16 39.3 124.201 39.3279 124.234 39.363L126.971 42.193C127.041 42.2654 127.079 42.3617 127.079 42.462C127.079 42.5622 127.041 42.6586 126.971 42.731C126.938 42.7661 126.897 42.794 126.853 42.8131C126.808 42.8321 126.76 42.842 126.711 42.842M134.769 43.429C134.67 43.4271 134.576 43.3861 134.507 43.3149C134.438 43.2436 134.401 43.148 134.402 43.049V39.045C134.402 38.835 134.566 38.665 134.769 38.665C134.972 38.665 135.136 38.835 135.136 39.045V43.049C135.136 43.259 134.972 43.429 134.769 43.429Z" fill="#FF0049"/>
<path fill-rule="evenodd" clip-rule="evenodd" d="M133.4 42.843C133.351 42.8429 133.303 42.8329 133.259 42.8136C133.214 42.7944 133.174 42.7663 133.14 42.731C133.071 42.6586 133.032 42.5625 133.032 42.4625C133.032 42.3625 133.071 42.2663 133.14 42.194L135.878 39.364C135.912 39.3289 135.952 39.301 135.997 39.2819C136.041 39.2628 136.089 39.253 136.138 39.253C136.187 39.253 136.235 39.2628 136.279 39.2819C136.324 39.301 136.364 39.3289 136.398 39.364C136.467 39.4363 136.505 39.5322 136.505 39.632C136.505 39.7317 136.467 39.8277 136.398 39.9L133.66 42.731C133.626 42.7661 133.586 42.794 133.541 42.8131C133.497 42.8322 133.449 42.842 133.4 42.842" fill="#FF0049"/>
<path fill-rule="evenodd" clip-rule="evenodd" d="M136.705 41.427H132.833C132.734 41.4251 132.64 41.3841 132.571 41.3129C132.502 41.2416 132.465 41.146 132.466 41.047C132.466 40.837 132.63 40.667 132.833 40.667H136.705C136.908 40.667 137.072 40.837 137.072 41.047C137.072 41.257 136.908 41.427 136.705 41.427Z" fill="#FF0049"/>
<path fill-rule="evenodd" clip-rule="evenodd" d="M136.138 42.843C136.089 42.8428 136.041 42.8329 135.996 42.8136C135.952 42.7944 135.911 42.7662 135.878 42.731L133.141 39.901C133.072 39.8286 133.033 39.7322 133.033 39.632C133.033 39.5317 133.072 39.4354 133.141 39.363C133.175 39.328 133.215 39.3002 133.259 39.2813C133.304 39.2623 133.352 39.2525 133.4 39.2525C133.449 39.2525 133.497 39.2623 133.541 39.2813C133.586 39.3002 133.626 39.328 133.66 39.363L136.398 42.193C136.467 42.2654 136.506 42.3617 136.506 42.462C136.506 42.5622 136.467 42.6586 136.398 42.731C136.364 42.7661 136.324 42.794 136.279 42.8131C136.235 42.8321 136.187 42.842 136.138 42.842M144.196 43.429C144.147 43.4282 144.098 43.4177 144.053 43.3982C144.008 43.3787 143.967 43.3505 143.933 43.3152C143.899 43.2799 143.872 43.2382 143.854 43.1926C143.836 43.1469 143.827 43.0981 143.828 43.049V39.045C143.828 38.835 143.992 38.665 144.196 38.665C144.399 38.665 144.563 38.835 144.563 39.045V43.049C144.563 43.259 144.399 43.429 144.196 43.429Z" fill="#FF0049"/>
<path fill-rule="evenodd" clip-rule="evenodd" d="M142.827 42.843C142.778 42.8429 142.73 42.8329 142.686 42.8137C142.641 42.7944 142.601 42.7663 142.567 42.731C142.498 42.6587 142.459 42.5625 142.459 42.4625C142.459 42.3625 142.498 42.2664 142.567 42.194L145.305 39.364C145.339 39.3291 145.379 39.3013 145.423 39.2823C145.468 39.2633 145.516 39.2535 145.564 39.2535C145.613 39.2535 145.661 39.2633 145.706 39.2823C145.75 39.3013 145.79 39.3291 145.824 39.364C145.893 39.4363 145.931 39.5323 145.931 39.632C145.931 39.7318 145.893 39.8277 145.824 39.9L143.086 42.731C143.052 42.7661 143.012 42.794 142.967 42.8131C142.923 42.8322 142.875 42.842 142.826 42.842" fill="#FF0049"/>
<path fill-rule="evenodd" clip-rule="evenodd" d="M146.131 41.427H142.26C142.161 41.4251 142.067 41.3841 141.998 41.3129C141.929 41.2416 141.892 41.146 141.893 41.047C141.893 40.837 142.057 40.667 142.26 40.667H146.131C146.334 40.667 146.498 40.837 146.498 41.047C146.498 41.257 146.334 41.427 146.131 41.427Z" fill="#FF0049"/>
<path fill-rule="evenodd" clip-rule="evenodd" d="M145.564 42.843C145.515 42.8429 145.467 42.8329 145.423 42.8136C145.378 42.7944 145.338 42.7663 145.304 42.731L142.567 39.901C142.498 39.8286 142.459 39.7322 142.459 39.632C142.459 39.5318 142.498 39.4354 142.567 39.363C142.601 39.3279 142.641 39.3 142.686 39.2809C142.73 39.2618 142.778 39.252 142.827 39.252C142.876 39.252 142.924 39.2618 142.968 39.2809C143.013 39.3 143.053 39.3279 143.087 39.363L145.824 42.193C145.893 42.2654 145.932 42.3618 145.932 42.462C145.932 42.5622 145.893 42.6586 145.824 42.731C145.79 42.7661 145.75 42.794 145.705 42.8131C145.661 42.8322 145.613 42.842 145.564 42.842" fill="#FF0049"/>
<path fill-rule="evenodd" clip-rule="evenodd" d="M87.2791 48.058H99.2761V34.133H87.2791C86.4681 34.133 85.8091 34.813 85.8091 35.653V46.538C85.8091 47.378 86.4681 48.058 87.2791 48.058Z" fill="#AFBDC4" stroke="#032D47" stroke-width="1.2"/>
<path fill-rule="evenodd" clip-rule="evenodd" d="M99.5302 47.678H150.366C151.056 47.678 151.617 46.992 151.617 46.148V36.043C151.617 35.2 151.056 34.514 150.366 34.514H99.5302V47.679V47.678ZM150.366 48.438H99.2192C99.0482 48.438 98.9092 48.268 98.9092 48.058V34.133C98.9092 33.923 99.0482 33.753 99.2192 33.753H150.366C151.399 33.753 152.239 34.78 152.239 36.043V46.149C152.239 47.411 151.399 48.438 150.366 48.438V48.438Z" fill="#032D47"/>
<path fill-rule="evenodd" clip-rule="evenodd" d="M87.2791 48.058H99.2761V34.133H87.2791C86.4681 34.133 85.8091 34.813 85.8091 35.653V46.538C85.8091 47.378 86.4681 48.058 87.2791 48.058Z" fill="#AFBDC4" stroke="#032D47" stroke-width="1.2"/>
<path fill-rule="evenodd" clip-rule="evenodd" d="M90.323 41.095C90.323 39.828 91.317 38.8 92.543 38.8C93.769 38.8 94.763 39.828 94.763 41.095C94.763 42.363 93.769 43.391 92.543 43.391C91.317 43.391 90.323 42.363 90.323 41.095Z" fill="white"/>
<path fill-rule="evenodd" clip-rule="evenodd" d="M64.3449 81.168C64.4295 81.2197 64.4901 81.3029 64.5135 81.3992C64.5369 81.4955 64.5212 81.5972 64.4699 81.682L59.7639 89.834C59.716 89.9208 59.6357 89.9851 59.5405 90.0128C59.4453 90.0406 59.3429 90.0295 59.2559 89.982C59.1712 89.9304 59.1104 89.8473 59.0868 89.751C59.0632 89.6546 59.0787 89.5529 59.1299 89.468L63.8359 81.316C63.8838 81.2289 63.9643 81.1644 64.0598 81.1366C64.1552 81.1089 64.2578 81.1201 64.3449 81.168M57.7239 92.635C57.8086 92.6866 57.8694 92.7696 57.893 92.8659C57.9167 92.9623 57.9012 93.064 57.8499 93.149L54.4139 99.099C54.3664 99.1861 54.2862 99.2509 54.1909 99.279C54.0957 99.3071 53.9932 99.2963 53.9059 99.249C53.8637 99.2234 53.8269 99.1898 53.7978 99.15C53.7686 99.1102 53.7475 99.0651 53.7358 99.0171C53.7241 98.9692 53.722 98.9194 53.7295 98.8706C53.7371 98.8219 53.7542 98.7751 53.7799 98.733L57.2159 92.783C57.2638 92.6961 57.3442 92.6318 57.4394 92.6041C57.5346 92.5764 57.6369 92.5875 57.7239 92.635ZM52.3749 101.9C52.4597 101.952 52.5205 102.035 52.544 102.132C52.5674 102.228 52.5516 102.33 52.4999 102.415L41.3029 121.809C41.255 121.896 41.1747 121.96 41.0795 121.988C40.9843 122.016 40.882 122.004 40.7949 121.957C40.7102 121.905 40.6494 121.822 40.6258 121.726C40.6022 121.63 40.6177 121.528 40.6689 121.443L51.8659 102.049C51.8895 102.006 51.9215 101.968 51.9598 101.937C51.9982 101.906 52.0423 101.883 52.0896 101.869C52.1368 101.855 52.1863 101.851 52.2353 101.856C52.2843 101.861 52.3317 101.876 52.3749 101.9" fill="#5B7687"/>
<path fill-rule="evenodd" clip-rule="evenodd" d="M80.9441 125.645C82.1671 124.847 82.8061 124.248 82.8601 123.848C82.9101 123.483 82.8601 115.088 82.8601 113.536C82.8601 113.126 82.2221 112.485 80.9441 111.611H18.7141V125.645" fill="white"/>
<path fill-rule="evenodd" clip-rule="evenodd" d="M20.785 125.263H80.655C81.467 125.263 82.128 124.571 82.128 123.721V113.535C82.128 112.685 81.468 111.994 80.655 111.994H20.785V125.263ZM80.655 126.028H20.419C20.3199 126.026 20.2258 125.984 20.1572 125.913C20.0886 125.841 20.0512 125.745 20.053 125.646V111.611C20.053 111.399 20.217 111.228 20.419 111.228H80.655C81.871 111.228 82.8601 112.263 82.8601 113.535V123.721C82.8601 124.993 81.871 126.028 80.655 126.028V126.028Z" fill="#032D47"/>
<path fill-rule="evenodd" clip-rule="evenodd" d="M27.609 120.98C27.5097 120.978 27.4154 120.936 27.3468 120.864C27.2782 120.792 27.2409 120.696 27.243 120.597V116.562C27.243 116.35 27.406 116.179 27.609 116.179C27.811 116.179 27.975 116.35 27.975 116.562V120.597C27.9772 120.696 27.9398 120.792 27.8712 120.864C27.8026 120.936 27.7083 120.978 27.609 120.98" fill="#FF0049"/>
<path fill-rule="evenodd" clip-rule="evenodd" d="M26.2451 120.389C26.1964 120.389 26.1482 120.379 26.1035 120.36C26.0588 120.341 26.0185 120.312 25.9851 120.277C25.9159 120.204 25.8774 120.107 25.8774 120.006C25.8774 119.905 25.9159 119.808 25.9851 119.735L28.7141 116.882C28.7473 116.847 28.7873 116.819 28.8318 116.799C28.8762 116.78 28.9241 116.77 28.9726 116.77C29.021 116.77 29.0689 116.78 29.1134 116.799C29.1578 116.819 29.1979 116.847 29.2311 116.882C29.2999 116.955 29.3382 117.052 29.3382 117.152C29.3382 117.253 29.2999 117.35 29.2311 117.423L26.5031 120.277C26.4699 120.312 26.4299 120.34 26.3856 120.359C26.3412 120.379 26.2934 120.389 26.2451 120.389Z" fill="#FF0049"/>
<path fill-rule="evenodd" clip-rule="evenodd" d="M29.5381 118.962H25.6791C25.5798 118.96 25.4855 118.918 25.4169 118.846C25.3483 118.774 25.3109 118.678 25.3131 118.579C25.3131 118.368 25.4771 118.196 25.6791 118.196H29.5381C29.7401 118.196 29.9041 118.368 29.9041 118.579C29.9062 118.678 29.8689 118.774 29.8003 118.846C29.7317 118.918 29.6374 118.96 29.5381 118.962" fill="#FF0049"/>
<path fill-rule="evenodd" clip-rule="evenodd" d="M28.9721 120.389C28.9237 120.389 28.8759 120.379 28.8316 120.359C28.7872 120.34 28.7472 120.312 28.7141 120.277L25.9861 117.423C25.9172 117.35 25.8789 117.253 25.8789 117.152C25.8789 117.052 25.9172 116.955 25.9861 116.882C26.0193 116.847 26.0593 116.819 26.1038 116.799C26.1482 116.78 26.1961 116.77 26.2446 116.77C26.293 116.77 26.3409 116.78 26.3854 116.799C26.4298 116.819 26.4699 116.847 26.5031 116.882L29.2311 119.735C29.3002 119.808 29.3387 119.905 29.3387 120.006C29.3387 120.107 29.3002 120.204 29.2311 120.277C29.1978 120.312 29.1576 120.34 29.1131 120.36C29.0686 120.379 29.0206 120.389 28.9721 120.389M37.0031 120.98C36.9538 120.979 36.9052 120.968 36.8601 120.948C36.815 120.929 36.7743 120.9 36.7402 120.864C36.7061 120.829 36.6794 120.787 36.6615 120.741C36.6437 120.695 36.635 120.646 36.6361 120.597V116.562C36.6361 116.35 36.8001 116.179 37.0031 116.179C37.2051 116.179 37.3691 116.35 37.3691 116.562V120.597C37.3712 120.696 37.3339 120.792 37.2653 120.864C37.1966 120.936 37.1023 120.978 37.0031 120.98" fill="#FF0049"/>
<path fill-rule="evenodd" clip-rule="evenodd" d="M35.6391 120.389C35.5904 120.389 35.5422 120.379 35.4975 120.36C35.4528 120.341 35.4125 120.312 35.3791 120.277C35.31 120.204 35.2715 120.107 35.2715 120.006C35.2715 119.905 35.31 119.808 35.3791 119.735L38.1071 116.882C38.1403 116.847 38.1804 116.818 38.225 116.799C38.2695 116.78 38.3176 116.77 38.3661 116.77C38.4147 116.77 38.4627 116.78 38.5072 116.799C38.5518 116.818 38.5919 116.847 38.6251 116.882C38.6939 116.955 38.7323 117.052 38.7323 117.152C38.7323 117.253 38.6939 117.35 38.6251 117.423L35.8971 120.277C35.8638 120.312 35.8237 120.34 35.7792 120.36C35.7346 120.379 35.6866 120.389 35.6381 120.389" fill="#FF0049"/>
<path fill-rule="evenodd" clip-rule="evenodd" d="M38.9321 118.962H35.0731C34.9738 118.96 34.8795 118.918 34.8109 118.846C34.7423 118.774 34.705 118.678 34.7071 118.579C34.7071 118.368 34.8711 118.196 35.0731 118.196H38.9321C39.1341 118.196 39.2981 118.368 39.2981 118.579C39.3003 118.678 39.2629 118.774 39.1943 118.846C39.1257 118.918 39.0314 118.96 38.9321 118.962" fill="#FF0049"/>
<path fill-rule="evenodd" clip-rule="evenodd" d="M38.3661 120.389C38.3178 120.389 38.27 120.379 38.2256 120.359C38.1813 120.34 38.1413 120.312 38.1081 120.277L35.3801 117.423C35.3113 117.35 35.2729 117.253 35.2729 117.152C35.2729 117.052 35.3113 116.955 35.3801 116.882C35.4133 116.847 35.4534 116.819 35.4978 116.799C35.5423 116.78 35.5902 116.77 35.6386 116.77C35.687 116.77 35.7349 116.78 35.7794 116.799C35.8239 116.819 35.8639 116.847 35.8971 116.882L38.6251 119.735C38.6942 119.808 38.7327 119.905 38.7327 120.006C38.7327 120.107 38.6942 120.204 38.6251 120.277C38.5918 120.312 38.5517 120.34 38.5071 120.36C38.4626 120.379 38.4146 120.389 38.3661 120.389M46.3961 120.98C46.2968 120.978 46.2025 120.936 46.1339 120.864C46.0653 120.792 46.028 120.696 46.0301 120.597V116.562C46.0301 116.35 46.1941 116.179 46.3961 116.179C46.5991 116.179 46.7631 116.35 46.7631 116.562V120.597C46.7642 120.646 46.7555 120.695 46.7376 120.741C46.7198 120.787 46.693 120.829 46.659 120.864C46.6249 120.9 46.5841 120.929 46.539 120.948C46.4939 120.968 46.4454 120.979 46.3961 120.98" fill="#FF0049"/>
<path fill-rule="evenodd" clip-rule="evenodd" d="M45.0319 120.389C44.9834 120.389 44.9354 120.379 44.8909 120.36C44.8463 120.34 44.8062 120.312 44.7729 120.277C44.7038 120.204 44.6653 120.107 44.6653 120.006C44.6653 119.905 44.7038 119.808 44.7729 119.735L47.5019 116.882C47.5351 116.847 47.5752 116.819 47.6196 116.799C47.6641 116.78 47.712 116.77 47.7604 116.77C47.8088 116.77 47.8568 116.78 47.9012 116.799C47.9457 116.819 47.9857 116.847 48.0189 116.882C48.0877 116.955 48.1261 117.052 48.1261 117.152C48.1261 117.253 48.0877 117.35 48.0189 117.423L45.2909 120.277C45.2576 120.312 45.2175 120.34 45.1729 120.36C45.1284 120.379 45.0804 120.389 45.0319 120.389" fill="#FF0049"/>
<path fill-rule="evenodd" clip-rule="evenodd" d="M48.3249 118.962H44.4669C44.3676 118.96 44.2733 118.918 44.2047 118.846C44.1361 118.774 44.0988 118.678 44.1009 118.579C44.1009 118.368 44.2649 118.196 44.4669 118.196H48.3249C48.5279 118.196 48.6909 118.368 48.6909 118.579C48.6931 118.678 48.6557 118.774 48.5871 118.846C48.5185 118.918 48.4242 118.96 48.3249 118.962" fill="#FF0049"/>
<path fill-rule="evenodd" clip-rule="evenodd" d="M47.7609 120.389C47.7122 120.389 47.664 120.379 47.6193 120.36C47.5746 120.341 47.5343 120.312 47.5009 120.277L44.7739 117.423C44.7051 117.35 44.6667 117.253 44.6667 117.152C44.6667 117.052 44.7051 116.955 44.7739 116.882C44.8071 116.847 44.8471 116.819 44.8916 116.799C44.9361 116.78 44.984 116.77 45.0324 116.77C45.0808 116.77 45.1287 116.78 45.1732 116.799C45.2177 116.819 45.2577 116.847 45.2909 116.882L48.0189 119.735C48.088 119.808 48.1265 119.905 48.1265 120.006C48.1265 120.107 48.088 120.204 48.0189 120.277C47.9857 120.312 47.9457 120.34 47.9014 120.359C47.857 120.379 47.8092 120.389 47.7609 120.389M55.7899 120.98C55.6906 120.978 55.5963 120.936 55.5277 120.864C55.4591 120.792 55.4217 120.696 55.4239 120.597V116.562C55.4239 116.35 55.5879 116.179 55.7899 116.179C55.9929 116.179 56.1559 116.35 56.1559 116.562V120.597C56.158 120.696 56.1207 120.792 56.0521 120.864C55.9835 120.936 55.8892 120.978 55.7899 120.98" fill="#FF0049"/>
<path fill-rule="evenodd" clip-rule="evenodd" d="M54.4259 120.389C54.3774 120.389 54.3295 120.379 54.2849 120.36C54.2404 120.34 54.2002 120.312 54.167 120.277C54.0978 120.204 54.0593 120.107 54.0593 120.006C54.0593 119.905 54.0978 119.808 54.167 119.735L56.896 116.882C56.9291 116.847 56.9692 116.819 57.0137 116.799C57.0581 116.78 57.106 116.77 57.1544 116.77C57.2029 116.77 57.2508 116.78 57.2952 116.799C57.3397 116.819 57.3798 116.847 57.413 116.882C57.4818 116.955 57.5201 117.052 57.5201 117.152C57.5201 117.253 57.4818 117.35 57.413 117.423L54.685 120.277C54.6517 120.312 54.6115 120.34 54.567 120.36C54.5225 120.379 54.4745 120.389 54.4259 120.389" fill="#FF0049"/>
<path fill-rule="evenodd" clip-rule="evenodd" d="M57.719 118.962H53.861C53.7617 118.96 53.6674 118.918 53.5988 118.846C53.5302 118.774 53.4928 118.678 53.495 118.579C53.495 118.368 53.659 118.196 53.861 118.196H57.719C57.922 118.196 58.085 118.368 58.085 118.579C58.0871 118.678 58.0498 118.774 57.9812 118.846C57.9126 118.918 57.8183 118.96 57.719 118.962" fill="#FF0049"/>
<path fill-rule="evenodd" clip-rule="evenodd" d="M57.154 120.389C57.1056 120.389 57.0578 120.379 57.0135 120.359C56.9691 120.34 56.9291 120.312 56.896 120.277L54.167 117.423C54.0981 117.35 54.0598 117.253 54.0598 117.152C54.0598 117.052 54.0981 116.955 54.167 116.882C54.2002 116.847 54.2403 116.818 54.2848 116.799C54.3294 116.78 54.3774 116.77 54.426 116.77C54.4745 116.77 54.5226 116.78 54.5671 116.799C54.6116 116.818 54.6518 116.847 54.685 116.882L57.413 119.735C57.4821 119.808 57.5206 119.905 57.5206 120.006C57.5206 120.107 57.4821 120.204 57.413 120.277C57.3797 120.312 57.3395 120.34 57.295 120.36C57.2505 120.379 57.2025 120.389 57.154 120.389M65.184 120.98C65.0847 120.978 64.9904 120.936 64.9218 120.864C64.8532 120.792 64.8158 120.696 64.818 120.597V116.562C64.818 116.35 64.982 116.179 65.184 116.179C65.387 116.179 65.55 116.35 65.55 116.562V120.597C65.5521 120.696 65.5148 120.792 65.4462 120.864C65.3776 120.936 65.2833 120.978 65.184 120.98" fill="#FF0049"/>
<path fill-rule="evenodd" clip-rule="evenodd" d="M63.82 120.389C63.7715 120.389 63.7235 120.379 63.679 120.36C63.6344 120.34 63.5943 120.312 63.561 120.277C63.4919 120.204 63.4534 120.107 63.4534 120.006C63.4534 119.905 63.4919 119.808 63.561 119.735L66.289 116.882C66.3222 116.847 66.3623 116.818 66.4069 116.799C66.4514 116.78 66.4994 116.77 66.548 116.77C66.5965 116.77 66.6446 116.78 66.6891 116.799C66.7337 116.818 66.7738 116.847 66.807 116.882C66.8758 116.955 66.9142 117.052 66.9142 117.152C66.9142 117.253 66.8758 117.35 66.807 117.423L64.079 120.277C64.0457 120.312 64.0056 120.34 63.961 120.36C63.9165 120.379 63.8685 120.389 63.82 120.389" fill="#FF0049"/>
<path fill-rule="evenodd" clip-rule="evenodd" d="M67.113 118.962H63.255C63.1557 118.96 63.0614 118.918 62.9928 118.846C62.9242 118.774 62.8869 118.678 62.889 118.579C62.889 118.368 63.053 118.196 63.255 118.196H67.113C67.316 118.196 67.479 118.368 67.479 118.579C67.4811 118.678 67.4438 118.774 67.3752 118.846C67.3066 118.918 67.2123 118.96 67.113 118.962" fill="#FF0049"/>
<path fill-rule="evenodd" clip-rule="evenodd" d="M66.549 120.389C66.5003 120.389 66.4522 120.379 66.4074 120.36C66.3627 120.341 66.3224 120.312 66.289 120.277L63.561 117.423C63.4922 117.35 63.4539 117.253 63.4539 117.152C63.4539 117.052 63.4922 116.955 63.561 116.882C63.5942 116.847 63.6343 116.818 63.6789 116.799C63.7234 116.78 63.7715 116.77 63.82 116.77C63.8686 116.77 63.9166 116.78 63.9611 116.799C64.0057 116.818 64.0458 116.847 64.079 116.882L66.807 119.735C66.8761 119.808 66.9146 119.905 66.9146 120.006C66.9146 120.107 66.8761 120.204 66.807 120.277C66.7737 120.312 66.7336 120.34 66.689 120.36C66.6445 120.379 66.5965 120.389 66.548 120.389M74.579 120.98C74.5298 120.979 74.4812 120.968 74.4361 120.948C74.391 120.929 74.3503 120.9 74.3162 120.864C74.2821 120.829 74.2553 120.787 74.2375 120.741C74.2196 120.695 74.211 120.646 74.212 120.597V116.562C74.212 116.35 74.376 116.179 74.578 116.179C74.781 116.179 74.944 116.35 74.944 116.562V120.597C74.9462 120.696 74.9088 120.792 74.8402 120.864C74.7716 120.936 74.6773 120.978 74.578 120.98" fill="#FF0049"/>
<path fill-rule="evenodd" clip-rule="evenodd" d="M73.214 120.389C73.1655 120.389 73.1175 120.379 73.073 120.36C73.0285 120.34 72.9883 120.312 72.955 120.277C72.8859 120.204 72.8474 120.107 72.8474 120.006C72.8474 119.905 72.8859 119.808 72.955 119.735L75.683 116.882C75.7162 116.847 75.7564 116.818 75.8009 116.799C75.8455 116.78 75.8935 116.77 75.942 116.77C75.9906 116.77 76.0386 116.78 76.0832 116.799C76.1277 116.818 76.1678 116.847 76.201 116.882C76.2699 116.955 76.3082 117.052 76.3082 117.152C76.3082 117.253 76.2699 117.35 76.201 117.423L73.473 120.277C73.4396 120.312 73.3993 120.341 73.3546 120.36C73.3099 120.379 73.2617 120.389 73.213 120.389" fill="#FF0049"/>
<path fill-rule="evenodd" clip-rule="evenodd" d="M76.507 118.962H72.6491C72.5498 118.96 72.4555 118.918 72.3868 118.846C72.3182 118.774 72.2809 118.678 72.283 118.579C72.283 118.368 72.4471 118.196 72.6491 118.196H76.507C76.709 118.196 76.8731 118.368 76.8731 118.579C76.8752 118.678 76.8379 118.774 76.7693 118.846C76.7006 118.918 76.6063 118.96 76.507 118.962" fill="#FF0049"/>
<path fill-rule="evenodd" clip-rule="evenodd" d="M75.9421 120.389C75.8935 120.389 75.8455 120.379 75.801 120.36C75.7565 120.34 75.7163 120.312 75.6831 120.277L72.9551 117.423C72.8862 117.35 72.8479 117.253 72.8479 117.152C72.8479 117.052 72.8862 116.955 72.9551 116.882C72.9883 116.847 73.0284 116.818 73.0729 116.799C73.1175 116.78 73.1655 116.77 73.2141 116.77C73.2626 116.77 73.3106 116.78 73.3552 116.799C73.3997 116.818 73.4398 116.847 73.4731 116.882L76.201 119.735C76.2702 119.808 76.3087 119.905 76.3087 120.006C76.3087 120.107 76.2702 120.204 76.201 120.277C76.1678 120.312 76.1276 120.34 76.0831 120.36C76.0386 120.379 75.9906 120.389 75.9421 120.389" fill="#FF0049"/>
<path fill-rule="evenodd" clip-rule="evenodd" d="M8.464 125.645H20.419V111.611H8.464C7.655 111.611 7 112.296 7 113.142V124.114C7 124.96 7.655 125.645 8.464 125.645" fill="#AFBDC4"/>
<path d="M8.464 125.645H20.419V111.611H8.464C7.655 111.611 7 112.296 7 113.142V124.114C7 124.96 7.655 125.645 8.464 125.645" stroke="#032D47" stroke-width="1.2"/>
<path fill-rule="evenodd" clip-rule="evenodd" d="M20.785 125.263H80.655C81.467 125.263 82.128 124.571 82.128 123.721V113.535C82.128 112.685 81.468 111.994 80.655 111.994H20.785V125.263ZM80.655 126.028H20.419C20.3199 126.026 20.2258 125.984 20.1572 125.913C20.0886 125.841 20.0512 125.745 20.053 125.646V111.611C20.053 111.399 20.217 111.228 20.419 111.228H80.655C81.871 111.228 82.8601 112.263 82.8601 113.535V123.721C82.8601 124.993 81.871 126.028 80.655 126.028V126.028Z" fill="#032D47"/>
<path fill-rule="evenodd" clip-rule="evenodd" d="M8.464 125.645H20.419V111.611H8.464C7.655 111.611 7 112.296 7 113.142V124.114C7 124.96 7.655 125.645 8.464 125.645" fill="#AFBDC4"/>
<path d="M8.464 125.645H20.419V111.611H8.464C7.655 111.611 7 112.296 7 113.142V124.114C7 124.96 7.655 125.645 8.464 125.645" stroke="#032D47" stroke-width="1.2"/>
<path fill-rule="evenodd" clip-rule="evenodd" d="M11.4971 118.628C11.4971 117.35 12.4871 116.314 13.7101 116.314C14.9321 116.314 15.9221 117.35 15.9221 118.628C15.9221 119.906 14.9321 120.942 13.7101 120.942C12.4881 120.942 11.4971 119.906 11.4971 118.628Z" fill="white"/>
<path fill-rule="evenodd" clip-rule="evenodd" d="M88.319 95.691C85.169 95.581 82.696 92.939 82.805 89.807C82.915 86.669 85.567 84.208 88.717 84.318C91.867 84.428 94.339 87.068 94.229 90.205C94.119 93.338 91.469 95.801 88.319 95.691V95.691Z" fill="#CDD5DA" fill-opacity="0.558" stroke="#002B45" stroke-width="1.2" stroke-linejoin="round"/>
<path fill-rule="evenodd" clip-rule="evenodd" d="M70.664 75.288C67.284 76.653 63.439 75.048 62.092 71.716C60.744 68.378 62.397 64.554 65.776 63.189C69.154 61.824 72.998 63.427 74.346 66.765C75.693 70.097 74.042 73.923 70.664 75.288V75.288Z" fill="#CDD5DA" fill-opacity="0.558" stroke="#002B45" stroke-width="1.2" stroke-linejoin="round"/>
<path fill-rule="evenodd" clip-rule="evenodd" d="M83.4889 66.299L81.1789 60.582L77.6239 62.018C76.9932 61.1884 76.2543 60.4468 75.4269 59.813L76.9369 56.278L71.2429 53.876L69.7169 57.448C68.695 57.3126 67.6598 57.3092 66.6369 57.438L65.1799 53.832L59.4369 56.152L60.8899 59.749C60.0588 60.3662 59.311 61.0882 58.6649 61.897L55.1059 60.395L52.6789 66.079L56.1859 67.559C56.0268 68.5995 56.0086 69.6567 56.1319 70.702L52.6169 72.122L54.9269 77.84L58.4429 76.42C59.0869 77.265 59.8349 78.01 60.6649 78.642L59.1699 82.143L64.8639 84.546L66.3819 80.991C67.3959 81.124 68.4329 81.123 69.4719 80.991L70.9259 84.589L76.6689 82.269L75.2109 78.661C76.0359 78.0433 76.778 77.322 77.4189 76.515L80.9999 78.026L83.4279 72.342L79.8849 70.848C80.0389 69.827 80.0569 68.782 79.9339 67.736L83.4899 66.299H83.4889Z" stroke="#002B45" stroke-width="1.2" stroke-linejoin="round"/>
<path fill-rule="evenodd" clip-rule="evenodd" d="M101.353 93.043L101.534 87.868L98.316 87.755C98.1155 86.9034 97.8021 86.0825 97.384 85.314L99.75 83.117L96.202 79.33L93.812 81.549C93.0741 81.0958 92.2809 80.7395 91.452 80.489L91.566 77.226L86.368 77.045L86.254 80.3C85.4058 80.4897 84.5857 80.7881 83.814 81.188L81.597 78.821L77.793 82.351L79.978 84.684C79.5005 85.4279 79.1254 86.2328 78.863 87.077L75.681 86.967L75.5 92.142L78.682 92.252C78.888 93.122 79.207 93.948 79.628 94.716L77.284 96.892L80.832 100.68L83.212 98.471C83.9533 98.9232 84.7499 99.2778 85.582 99.526L85.468 102.783L90.666 102.964L90.78 99.699C91.6235 99.5068 92.4389 99.207 93.206 98.807L95.437 101.189L99.241 97.658L97.034 95.301C97.5048 94.5636 97.8747 93.7665 98.134 92.931L101.354 93.043H101.353Z" stroke="#002B45" stroke-width="1.2" stroke-linejoin="round"/>
</svg>
