<svg width="160" height="160" viewBox="0 0 160 160" fill="none" xmlns="http://www.w3.org/2000/svg">
<rect width="160" height="160" fill="white"/>
<path d="M77.9236 133.909C104.365 133.909 125.801 112.527 125.801 86.152C125.801 59.7766 104.365 38.395 77.9236 38.395C51.4819 38.395 30.0466 59.7766 30.0466 86.152C30.0466 112.527 51.4819 133.909 77.9236 133.909Z" fill="#F1F4F4"/>
<path d="M91.9826 32.2621C62.3116 24.3121 31.8296 41.8601 23.8996 71.4571C15.9696 101.053 33.5926 131.491 63.2636 139.441C92.9336 147.391 123.417 129.844 131.347 100.247" stroke="#BECACF" stroke-width="0.6"/>
<path d="M47.1236 138.679C76.3716 155.565 113.738 145.603 130.582 116.428C147.427 87.253 137.372 49.912 108.122 33.025C78.8736 16.139 41.5096 26.102 24.6636 55.276" stroke="#BECACF" stroke-width="0.6"/>
<path fill-rule="evenodd" clip-rule="evenodd" d="M51.9326 123.999C51.4552 123.999 50.9973 124.189 50.6598 124.526C50.3222 124.864 50.1326 125.322 50.1326 125.799V126.603C50.1326 127.08 50.3222 127.538 50.6598 127.876C50.9973 128.213 51.4552 128.403 51.9326 128.403H61.1776C61.655 128.403 62.1128 128.213 62.4504 127.876C62.7879 127.538 62.9776 127.08 62.9776 126.603V125.799C62.9776 125.322 62.7879 124.864 62.4504 124.526C62.1128 124.189 61.655 123.999 61.1776 123.999H51.9336H51.9326ZM95.7536 123.999C95.2762 123.999 94.8183 124.189 94.4808 124.526C94.1432 124.864 93.9536 125.322 93.9536 125.799V126.603C93.9536 127.08 94.1432 127.538 94.4808 127.876C94.8183 128.213 95.2762 128.403 95.7536 128.403H104.999C105.476 128.403 105.934 128.213 106.271 127.876C106.609 127.538 106.799 127.08 106.799 126.603V125.799C106.799 125.322 106.609 124.864 106.271 124.526C105.934 124.189 105.476 123.999 104.999 123.999H95.7536Z" fill="white" stroke="#002842" stroke-width="1.2"/>
<path fill-rule="evenodd" clip-rule="evenodd" d="M110.145 44.382H45.6636C41.2856 44.382 37.7356 47.923 37.7356 52.291V116.611C37.7356 120.979 41.2856 124.52 45.6636 124.52H110.146C114.525 124.52 118.074 120.979 118.074 116.611V52.292C118.074 47.924 114.524 44.383 110.146 44.383L110.145 44.382Z" fill="white" stroke="#002842" stroke-width="1.2"/>
<path fill-rule="evenodd" clip-rule="evenodd" d="M49.5325 56.151H106.836V113.311H49.5335L49.5325 56.151Z" stroke="#CDD5DA" stroke-width="1.2"/>
<path fill-rule="evenodd" clip-rule="evenodd" d="M78.1846 100.422C86.8736 100.422 93.9146 93.272 93.9146 84.452C93.9146 75.631 86.8736 68.48 78.1846 68.48C69.4966 68.48 62.4546 75.63 62.4546 84.452C62.4546 93.272 69.4966 100.422 78.1846 100.422Z" fill="white" stroke="#002842" stroke-width="1.2"/>
<path d="M78.1846 97.06V99.862M78.1846 68.48V71.282M78.1846 69.04V71.842M78.1846 97.06V99.862M93.3536 84.171H90.5436M65.2636 84.171H62.4536M89.9826 73.523L87.1736 76.325M68.6336 93.137L66.9486 94.818M66.9486 73.523L69.7576 76.325M87.1736 93.137L88.8586 94.818M78.4656 92.577C82.9646 92.577 86.6116 88.939 86.6116 84.451C86.6116 79.962 82.9646 76.325 78.4656 76.325C73.9666 76.325 70.3196 79.962 70.3196 84.451C70.3196 88.939 73.9666 92.577 78.4656 92.577Z" stroke="#002842" stroke-width="1.2"/>
<path d="M92.2295 43.822V37.938C92.2295 36.855 93.0465 35.976 94.0565 35.976H97.7085C98.7165 35.976 99.5335 36.855 99.5335 37.938V43.822" stroke="#FF0049" stroke-width="1.2"/>
<path d="M75.9375 35.976V43.822" stroke="#002842" stroke-width="1.2"/>
<path fill-rule="evenodd" clip-rule="evenodd" d="M63.9925 37.657H60.3535C59.3425 37.657 58.5215 36.737 58.5215 35.603V27.383C58.5215 26.249 59.3415 25.329 60.3535 25.329H63.9925C65.0055 25.329 65.8245 26.249 65.8245 27.383V35.603C65.8245 36.737 65.0055 37.657 63.9925 37.657ZM85.9035 27.57H82.2635C81.2505 27.57 80.4315 26.65 80.4315 25.515V17.296C80.4315 16.162 81.2515 15.241 82.2645 15.241H85.9035C86.9135 15.241 87.7355 16.161 87.7355 17.296V25.516C87.7355 26.65 86.9145 27.57 85.9035 27.57Z" stroke="#FF0049" stroke-width="1.2"/>
<path d="M48.4084 13V27.57M107.398 16.362V30.932" stroke="#002842" stroke-width="1.2"/>
<path fill-rule="evenodd" clip-rule="evenodd" d="M133.028 93.592C133.028 91.978 131.618 90.658 129.896 90.658H104.242C102.52 90.658 101.11 91.978 101.11 93.593V112.352C101.11 113.966 102.52 115.286 104.242 115.286H129.896C131.618 115.286 133.028 113.966 133.028 112.351V93.592Z" fill="white" stroke="#002B45" stroke-width="1.2" stroke-linecap="round" stroke-linejoin="round"/>
<path fill-rule="evenodd" clip-rule="evenodd" d="M117.069 102.903C115.905 102.903 114.961 101.907 114.961 100.685C114.961 99.456 115.905 98.467 117.069 98.467C118.233 98.467 119.177 99.457 119.177 100.685C119.177 101.907 118.233 102.903 117.069 102.903Z" fill="#787C7F"/>
<path d="M117.069 101.424V108.079" stroke="#787C7F" stroke-width="1.44" stroke-linejoin="round"/>
<path fill-rule="evenodd" clip-rule="evenodd" d="M106.53 84.351C106.53 78.875 111.113 74.438 116.769 74.438C122.424 74.438 127.006 78.875 127.006 84.351V90.658H106.53V84.351V84.351Z" fill="white" stroke="#002B45" stroke-width="1.2" stroke-linecap="round" stroke-linejoin="round"/>
</svg>
