<svg width="64" height="64" viewBox="0 0 64 64" fill="none" xmlns="http://www.w3.org/2000/svg">
<path d="M55.7476 27.7606H31.0804C28.3396 27.7606 25.8873 29.7801 25.5988 32.5209C25.166 36.2715 22.281 38.4353 18.8189 38.5795C15.0684 38.5795 12.0391 35.5502 12.0391 31.7997C12.0391 28.0491 15.0684 25.0198 18.8189 25.0198C21.2712 25.0198 23.435 26.3181 24.589 28.3376C24.7333 28.4819 24.8775 28.4819 25.0218 28.3376C25.7431 27.4721 26.6086 26.7508 27.6183 26.3181C27.7626 26.3181 27.7626 26.0296 27.7626 25.8853C25.8873 23.0003 22.5695 21.125 18.8189 21.125C12.9046 21.125 8.14425 25.8853 8 31.9439C8 37.8583 12.7603 42.7629 18.8189 42.7629C24.3005 42.6186 28.9166 39.0123 29.4936 33.2422C29.6379 32.5209 30.2149 31.9439 31.0804 31.9439H52.1413V34.829C52.1413 36.4158 51.7085 38.7238 49.689 38.7238C47.6694 38.7238 47.2367 36.4158 47.2367 34.829V33.9635C47.2367 33.8192 47.0924 33.675 46.9482 33.675H43.4861C43.3419 33.675 43.1976 33.8192 43.1976 33.9635V34.6847C43.1976 36.2715 42.7648 38.5795 40.7453 38.5795C38.7258 38.5795 38.293 36.2715 38.293 34.6847V33.9635C38.293 33.8192 38.1488 33.675 38.0045 33.675H34.5425C34.3982 33.675 34.2539 33.8192 34.2539 33.9635V34.6847C34.2539 38.5795 36.4177 42.4744 40.6011 42.4744C42.3321 42.4744 43.9189 41.7531 44.9286 40.4548C46.0827 41.7531 47.5252 42.4744 49.2562 42.4744C53.5838 42.4744 55.6033 38.4353 55.6033 34.6847V28.0491C56.1803 27.9049 56.0361 27.7606 55.7476 27.7606Z" fill="#FF0049"/>
</svg>
