<svg width="528" height="62" viewBox="0 0 528 62" fill="none" xmlns="http://www.w3.org/2000/svg">
<path d="M63.6634 25.4223H30.7739C27.1195 25.4223 23.8497 28.115 23.4651 31.7694C22.888 36.7701 19.0413 39.6552 14.4252 39.8475C9.42449 39.8475 5.38543 35.8084 5.38543 30.8077C5.38543 25.8069 9.42449 21.7679 14.4252 21.7679C17.695 21.7679 20.58 23.4989 22.1187 26.1916C22.311 26.3839 22.5034 26.3839 22.6957 26.1916C23.6574 25.0376 24.8114 24.0759 26.1578 23.4989C26.3501 23.4989 26.3501 23.1142 26.3501 22.9219C23.8497 19.0751 19.426 16.5748 14.4252 16.5748C6.53944 16.5748 0.192337 22.9219 0 31C0 38.8858 6.34711 45.4253 14.4252 45.4253C21.734 45.2329 27.8888 40.4245 28.6582 32.731C28.8505 31.7694 29.6198 31 30.7739 31H58.855V34.8467C58.855 36.9624 58.278 40.0398 55.5853 40.0398C52.8926 40.0398 52.3155 36.9624 52.3155 34.8467V33.6927C52.3155 33.5004 52.1232 33.3081 51.9309 33.3081H47.3148C47.1225 33.3081 46.9301 33.5004 46.9301 33.6927V34.6544C46.9301 36.7701 46.3531 39.8475 43.6604 39.8475C40.9677 39.8475 40.3907 36.7701 40.3907 34.6544V33.6927C40.3907 33.5004 40.1984 33.3081 40.006 33.3081H35.3899C35.1976 33.3081 35.0053 33.5004 35.0053 33.6927V34.6544C35.0053 39.8475 37.8903 45.0406 43.4681 45.0406C45.7761 45.0406 47.8918 44.0789 49.2382 42.3479C50.7769 44.0789 52.7002 45.0406 55.0083 45.0406C60.7784 45.0406 63.4711 39.6552 63.4711 34.6544V25.8069C64.2404 25.6146 64.0481 25.4223 63.6634 25.4223Z" fill="#FF0049"/>
<path d="M90.512 37.212V49.5H83.816V15.9H97.52C101.472 15.9 104.504 16.852 106.616 18.756C108.744 20.66 109.808 23.268 109.808 26.58C109.808 29.86 108.744 32.452 106.616 34.356C104.504 36.26 101.488 37.212 97.568 37.212H90.512ZM90.512 22.068V31.092H97.4C101.096 31.092 102.944 29.588 102.944 26.58C102.944 23.572 101.096 22.068 97.4 22.068H90.512ZM137.075 49.5H130.955V46.932C129.243 49.044 126.923 50.1 123.995 50.1C120.779 50.1 118.099 48.932 115.955 46.596C113.811 44.26 112.739 41.348 112.739 37.86C112.739 34.372 113.811 31.46 115.955 29.124C118.099 26.788 120.779 25.62 123.995 25.62C126.939 25.62 129.259 26.684 130.955 28.812V26.244H137.075V49.5ZM125.147 31.452C123.355 31.452 121.907 32.068 120.803 33.3C119.699 34.516 119.147 36.036 119.147 37.86C119.147 39.684 119.699 41.212 120.803 42.444C121.907 43.66 123.355 44.268 125.147 44.268C126.923 44.268 128.363 43.668 129.467 42.468C130.587 41.252 131.147 39.716 131.147 37.86C131.147 36.004 130.587 34.476 129.467 33.276C128.363 32.06 126.923 31.452 125.147 31.452ZM160.343 32.724C157.719 31.46 155.247 30.828 152.927 30.828C151.759 30.828 150.871 31.02 150.263 31.404C149.655 31.772 149.351 32.284 149.351 32.94C149.351 33.276 149.439 33.556 149.615 33.78C149.791 34.004 150.079 34.188 150.479 34.332C150.879 34.476 151.263 34.588 151.631 34.668C151.999 34.748 152.503 34.836 153.143 34.932L155.207 35.244C160.439 36.044 163.055 38.364 163.055 42.204C163.055 44.62 162.111 46.54 160.223 47.964C158.335 49.388 155.719 50.1 152.375 50.1C148.087 50.1 144.639 49.188 142.031 47.364L144.503 42.612C146.775 44.132 149.415 44.892 152.423 44.892C155.287 44.892 156.719 44.164 156.719 42.708C156.719 42.148 156.415 41.7 155.807 41.364C155.199 41.028 154.215 40.764 152.855 40.572L150.959 40.308C145.599 39.556 142.919 37.204 142.919 33.252C142.919 30.868 143.783 29.004 145.511 27.66C147.255 26.316 149.663 25.644 152.735 25.644C156.287 25.644 159.527 26.38 162.455 27.852L160.343 32.724ZM184.484 32.724C181.86 31.46 179.388 30.828 177.068 30.828C175.9 30.828 175.012 31.02 174.404 31.404C173.796 31.772 173.492 32.284 173.492 32.94C173.492 33.276 173.58 33.556 173.756 33.78C173.932 34.004 174.22 34.188 174.62 34.332C175.02 34.476 175.404 34.588 175.772 34.668C176.14 34.748 176.644 34.836 177.284 34.932L179.348 35.244C184.58 36.044 187.196 38.364 187.196 42.204C187.196 44.62 186.252 46.54 184.364 47.964C182.476 49.388 179.86 50.1 176.516 50.1C172.228 50.1 168.78 49.188 166.172 47.364L168.644 42.612C170.916 44.132 173.556 44.892 176.564 44.892C179.428 44.892 180.86 44.164 180.86 42.708C180.86 42.148 180.556 41.7 179.948 41.364C179.34 41.028 178.356 40.764 176.996 40.572L175.1 40.308C169.74 39.556 167.06 37.204 167.06 33.252C167.06 30.868 167.924 29.004 169.652 27.66C171.396 26.316 173.804 25.644 176.876 25.644C180.428 25.644 183.668 26.38 186.596 27.852L184.484 32.724ZM218.22 42.564L223.212 26.244H229.764L221.892 49.5H214.74L209.58 33.78L204.468 49.5H197.364L189.492 26.244H196.164L201.132 42.492L206.34 26.244H212.94L218.22 42.564ZM244.306 25.62C247.922 25.62 250.922 26.788 253.306 29.124C255.706 31.444 256.906 34.356 256.906 37.86C256.906 41.364 255.706 44.284 253.306 46.62C250.922 48.94 247.922 50.1 244.306 50.1C240.706 50.1 237.714 48.94 235.33 46.62C232.946 44.284 231.754 41.364 231.754 37.86C231.754 34.356 232.946 31.444 235.33 29.124C237.714 26.788 240.706 25.62 244.306 25.62ZM244.306 31.452C242.53 31.452 241.058 32.052 239.89 33.252C238.722 34.452 238.138 35.988 238.138 37.86C238.138 39.732 238.722 41.268 239.89 42.468C241.058 43.668 242.53 44.268 244.306 44.268C246.098 44.268 247.578 43.668 248.746 42.468C249.914 41.268 250.498 39.732 250.498 37.86C250.498 35.988 249.914 34.452 248.746 33.252C247.578 32.052 246.098 31.452 244.306 31.452ZM274.646 25.62C275.894 25.62 276.982 25.788 277.91 26.124L276.974 32.34C275.854 31.844 274.59 31.596 273.182 31.596C271.694 31.596 270.502 32.052 269.606 32.964C268.726 33.86 268.286 35.148 268.286 36.828V49.5H262.022V26.244H268.094V28.788C269.502 26.676 271.686 25.62 274.646 25.62ZM291.198 25.62C294.046 25.62 296.326 26.636 298.038 28.668V14.94H304.278V49.5H298.158V46.932C296.446 49.044 294.126 50.1 291.198 50.1C287.982 50.1 285.302 48.932 283.158 46.596C281.014 44.26 279.942 41.348 279.942 37.86C279.942 34.372 281.014 31.46 283.158 29.124C285.302 26.788 287.982 25.62 291.198 25.62ZM292.35 31.452C290.558 31.452 289.11 32.068 288.006 33.3C286.902 34.516 286.35 36.036 286.35 37.86C286.35 39.684 286.902 41.212 288.006 42.444C289.11 43.66 290.558 44.268 292.35 44.268C294.126 44.268 295.566 43.668 296.67 42.468C297.79 41.252 298.35 39.716 298.35 37.86C298.35 36.004 297.79 34.476 296.67 33.276C295.566 32.06 294.126 31.452 292.35 31.452ZM360.334 49.5H353.638V24.132L345.333 46.26H338.254L329.95 24.324V49.5H323.254V15.9H333.07L341.806 38.58L350.518 15.9H360.334V49.5ZM390.34 49.5H384.22V46.932C382.508 49.044 380.188 50.1 377.26 50.1C374.044 50.1 371.364 48.932 369.22 46.596C367.076 44.26 366.004 41.348 366.004 37.86C366.004 34.372 367.076 31.46 369.22 29.124C371.364 26.788 374.044 25.62 377.26 25.62C380.204 25.62 382.524 26.684 384.22 28.812V26.244H390.34V49.5ZM378.412 31.452C376.62 31.452 375.172 32.068 374.068 33.3C372.964 34.516 372.412 36.036 372.412 37.86C372.412 39.684 372.964 41.212 374.068 42.444C375.172 43.66 376.62 44.268 378.412 44.268C380.188 44.268 381.628 43.668 382.732 42.468C383.852 41.252 384.412 39.716 384.412 37.86C384.412 36.004 383.852 34.476 382.732 33.276C381.628 32.06 380.188 31.452 378.412 31.452ZM409.865 25.62C412.521 25.62 414.689 26.46 416.369 28.14C418.065 29.82 418.913 32.004 418.913 34.692V49.5H412.649V36.708C412.649 35.028 412.257 33.74 411.473 32.844C410.689 31.948 409.569 31.5 408.113 31.5C406.689 31.5 405.513 31.956 404.585 32.868C403.657 33.764 403.193 35.06 403.193 36.756V49.5H396.929V26.244H403.025V28.98C404.529 26.74 406.809 25.62 409.865 25.62ZM448.184 49.5H442.064V46.932C440.352 49.044 438.032 50.1 435.104 50.1C431.888 50.1 429.208 48.932 427.064 46.596C424.92 44.26 423.848 41.348 423.848 37.86C423.848 34.372 424.92 31.46 427.064 29.124C429.208 26.788 431.888 25.62 435.104 25.62C438.048 25.62 440.368 26.684 442.064 28.812V26.244H448.184V49.5ZM436.256 31.452C434.464 31.452 433.016 32.068 431.912 33.3C430.808 34.516 430.256 36.036 430.256 37.86C430.256 39.684 430.808 41.212 431.912 42.444C433.016 43.66 434.464 44.268 436.256 44.268C438.032 44.268 439.472 43.668 440.576 42.468C441.696 41.252 442.256 39.716 442.256 37.86C442.256 36.004 441.696 34.476 440.576 33.276C439.472 32.06 438.032 31.452 436.256 31.452ZM464.036 25.62C467.108 25.62 469.508 26.692 471.236 28.836V26.244H477.38V47.58C477.38 51.308 476.252 54.236 473.996 56.364C471.74 58.492 468.684 59.556 464.828 59.556C462.94 59.556 461.092 59.308 459.284 58.812C457.492 58.332 455.948 57.644 454.652 56.748L456.884 51.636C459.284 53.22 461.844 54.012 464.564 54.012C466.564 54.012 468.164 53.476 469.364 52.404C470.58 51.332 471.188 49.812 471.188 47.844V46.212C469.46 48.308 467.076 49.356 464.036 49.356C462.628 49.356 461.276 49.068 459.98 48.492C458.684 47.916 457.54 47.124 456.548 46.116C455.572 45.108 454.788 43.852 454.196 42.348C453.62 40.844 453.332 39.228 453.332 37.5C453.332 35.756 453.62 34.14 454.196 32.652C454.788 31.148 455.572 29.892 456.548 28.884C457.54 27.86 458.684 27.06 459.98 26.484C461.276 25.908 462.628 25.62 464.036 25.62ZM465.62 31.38C463.876 31.38 462.46 31.972 461.372 33.156C460.3 34.324 459.764 35.772 459.764 37.5C459.764 39.228 460.3 40.676 461.372 41.844C462.46 43.012 463.876 43.596 465.62 43.596C467.332 43.596 468.732 43.02 469.82 41.868C470.908 40.7 471.452 39.244 471.452 37.5C471.452 35.74 470.908 34.284 469.82 33.132C468.748 31.964 467.348 31.38 465.62 31.38ZM494.296 25.62C497.64 25.62 500.36 26.756 502.456 29.028C504.552 31.284 505.6 34.22 505.6 37.836C505.6 38.636 505.56 39.34 505.479 39.948H488.992C489.296 41.564 489.976 42.772 491.032 43.572C492.104 44.372 493.416 44.772 494.968 44.772C497.128 44.772 499.088 44.028 500.848 42.54L504.52 46.572C501.928 48.924 498.624 50.1 494.608 50.1C491.04 50.1 488.136 48.98 485.896 46.74C483.656 44.5 482.536 41.564 482.536 37.932C482.536 34.284 483.624 31.324 485.8 29.052C487.976 26.764 490.808 25.62 494.296 25.62ZM494.247 31.02C492.792 31.02 491.624 31.428 490.744 32.244C489.88 33.044 489.304 34.188 489.016 35.676H499.312C499.024 34.172 498.448 33.02 497.584 32.22C496.72 31.42 495.608 31.02 494.247 31.02ZM523.318 25.62C524.566 25.62 525.654 25.788 526.582 26.124L525.646 32.34C524.526 31.844 523.262 31.596 521.854 31.596C520.366 31.596 519.174 32.052 518.278 32.964C517.398 33.86 516.958 35.148 516.958 36.828V49.5H510.694V26.244H516.766V28.788C518.174 26.676 520.358 25.62 523.318 25.62Z" fill="black"/>
</svg>
